<?xml version="1.0" encoding="UTF-8" standalone="no"?>
<!-- Created with Inkscape (http://www.inkscape.org/) -->

<svg
   xmlns:dc="http://purl.org/dc/elements/1.1/"
   xmlns:cc="http://creativecommons.org/ns#"
   xmlns:rdf="http://www.w3.org/1999/02/22-rdf-syntax-ns#"
   xmlns:svg="http://www.w3.org/2000/svg"
   xmlns="http://www.w3.org/2000/svg"
   xmlns:sodipodi="http://sodipodi.sourceforge.net/DTD/sodipodi-0.dtd"
   xmlns:inkscape="http://www.inkscape.org/namespaces/inkscape"
   width="110.64852mm"
   height="27.50708mm"
   viewBox="0 0 110.64852 27.50708"
   version="1.1"
   id="svg5918"
   inkscape:version="0.92.4 (5da689c313, 2019-01-14)"
   sodipodi:docname="logo.svg">
  <defs
     id="defs5912" />
  <sodipodi:namedview
     id="base"
     pagecolor="#ffffff"
     bordercolor="#666666"
     borderopacity="1.0"
     inkscape:pageopacity="0.0"
     inkscape:pageshadow="2"
     inkscape:zoom="1.4"
     inkscape:cx="179.50294"
     inkscape:cy="44.133383"
     inkscape:document-units="mm"
     inkscape:current-layer="layer1"
     showgrid="false"
     inkscape:window-width="1400"
     inkscape:window-height="971"
     inkscape:window-x="0"
     inkscape:window-y="25"
     inkscape:window-maximized="1" />
  <metadata
     id="metadata5915">
    <rdf:RDF>
      <cc:Work
         rdf:about="">
        <dc:format>image/svg+xml</dc:format>
        <dc:type
           rdf:resource="http://purl.org/dc/dcmitype/StillImage" />
        <dc:title></dc:title>
      </cc:Work>
    </rdf:RDF>
  </metadata>
  <g
     inkscape:label="Layer 1"
     inkscape:groupmode="layer"
     id="layer1"
     transform="translate(0,-269.49292)">
    <path
       inkscape:connector-curvature="0"
       id="path4995-8"
       style="font-style:normal;font-variant:normal;font-weight:normal;font-stretch:normal;font-size:18.41686249px;line-height:1.25;font-family:Umpush;-inkscape-font-specification:Umpush;letter-spacing:0px;word-spacing:0px;baseline-shift:sub;fill:#ffffff;fill-opacity:1;stroke:none;stroke-width:0.70834088;stroke-opacity:1"
       d="m 2.8776353,280.23778 v 2.85965 h 3.4082 v 1.28594 h -3.4082 v 5.46751 q 0,1.23199 0.33273,1.5827 0.34172,0.35071 1.37587,0.35071 h 1.6996 v 1.38486 h -1.6996 q -1.91543,0 -2.64383,-0.71041 -0.7284,-0.71941 -0.7284,-2.60786 v -5.46751 H 5.3446811e-6 v -1.28594 H 1.2140053 v -2.85965 z" />
    <path
       inkscape:connector-curvature="0"
       style="font-style:normal;font-variant:normal;font-weight:normal;font-stretch:normal;font-size:18.41686249px;line-height:1.25;font-family:Umpush;-inkscape-font-specification:Umpush;letter-spacing:0px;word-spacing:0px;baseline-shift:sub;fill:#ffffff;fill-opacity:1;stroke:none;stroke-width:0.70834088;stroke-opacity:1"
       d="m 8.4710352,283.09743 h 1.6546418 v 10.07172 H 8.4710352 Z"
       id="path5801-6" />
    <path
       inkscape:connector-curvature="0"
       style="font-style:normal;font-variant:normal;font-weight:normal;font-stretch:normal;font-size:18.41686249px;line-height:1.25;font-family:Umpush;-inkscape-font-specification:Umpush;letter-spacing:0px;word-spacing:0px;baseline-shift:sub;fill:#d40000;fill-opacity:1;stroke:none;stroke-width:0.70834088;stroke-opacity:1"
       d="m 8.4710352,279.17665 h 1.6546418 v 2.09528 H 8.4710352 Z"
       id="path4997-3" />
    <path
       inkscape:connector-curvature="0"
       id="path4999-7"
       style="font-style:normal;font-variant:normal;font-weight:normal;font-stretch:normal;font-size:18.41686249px;line-height:1.25;font-family:Umpush;-inkscape-font-specification:Umpush;letter-spacing:0px;word-spacing:0px;baseline-shift:sub;fill:#ffffff;fill-opacity:1;stroke:none;stroke-width:0.70834088;stroke-opacity:1"
       d="m 21.950957,287.09015 v 6.079 h -1.65464 v -6.02505 q 0,-1.42982 -0.55754,-2.14024 -0.55754,-0.71041 -1.67262,-0.71041 -1.3399,0 -2.11327,0.85429 -0.77336,0.8543 -0.77336,2.32909 v 5.69232 h -1.66363 v -10.07172 h 1.66363 v 1.56471 q 0.59351,-0.90825 1.39385,-1.35788 0.80934,-0.44963 1.86147,-0.44963 1.73558,0 2.62585,1.07911 0.89026,1.07012 0.89026,3.15641 z" />
    <path
       inkscape:connector-curvature="0"
       id="path5001-7"
       style="font-style:normal;font-variant:normal;font-weight:normal;font-stretch:normal;font-size:18.41686249px;line-height:1.25;font-family:Umpush;-inkscape-font-specification:Umpush;letter-spacing:0px;word-spacing:0px;baseline-shift:sub;fill:#ffffff;fill-opacity:1;stroke:none;stroke-width:0.70834088;stroke-opacity:1"
       d="m 29.459787,294.10438 q -0.70142,1.79852 -1.36687,2.34707 Q 27.427457,297 26.312377,297 h -1.32191 v -1.38486 h 0.9712 q 0.68344,0 1.06113,-0.32373 0.37769,-0.32374 0.83631,-1.52875 l 0.29676,-0.75538 -4.07366,-9.90985 h 1.75356 l 3.14742,7.87752 3.14741,-7.87752 h 1.75356 z" />
    <path
       inkscape:connector-curvature="0"
       id="path5003-2"
       style="font-style:normal;font-variant:normal;font-weight:bold;font-stretch:normal;font-size:28.33363533px;line-height:1.25;font-family:Umpush;-inkscape-font-specification:Umpush;letter-spacing:0px;word-spacing:0px;fill:#d40000;fill-opacity:1;stroke:none;stroke-width:0.70834088;stroke-opacity:1"
       d="m 37.033637,269.49293 h 5.32639 v 20.65533 h -5.32639 z" />
    <path
       inkscape:connector-curvature="0"
       id="path5005-3"
       style="font-style:normal;font-variant:normal;font-weight:bold;font-stretch:normal;font-size:28.33363533px;line-height:1.25;font-family:Umpush;-inkscape-font-specification:Umpush;letter-spacing:0px;word-spacing:0px;fill:#d40000;fill-opacity:1;stroke:none;stroke-width:0.70834088;stroke-opacity:1"
       d="m 47.603417,269.49293 h 8.84043 q 3.94291,0 6.0458,1.75702 2.11672,1.74318 2.11672,4.98052 0,3.25117 -2.11672,5.00819 -2.10289,1.74318 -6.0458,1.74318 h -3.51404 v 7.16642 h -5.32639 z m 5.32639,3.8599 v 5.76911 h 2.94681 q 1.5495,0 2.39342,-0.74708 0.84392,-0.76091 0.84392,-2.14439 0,-1.38348 -0.84392,-2.13056 -0.84392,-0.74708 -2.39342,-0.74708 z" />
    <path
       inkscape:connector-curvature="0"
       id="path5007-7"
       style="font-style:normal;font-variant:normal;font-weight:bold;font-stretch:normal;font-size:28.33363533px;line-height:1.25;font-family:Umpush;-inkscape-font-specification:Umpush;letter-spacing:0px;word-spacing:0px;fill:#ffffff;fill-opacity:1;stroke:none;stroke-width:0.70834088;stroke-opacity:1"
       d="m 78.288967,286.3852 h -8.32854 l -1.31431,3.76306 h -5.35406 l 7.65063,-20.65533 h 6.35017 l 7.65064,20.65533 h -5.35407 z m -7.0004,-3.83224 h 5.65843 l -2.8223,-8.21786 z" />
    <path
       inkscape:connector-curvature="0"
       id="path5009-2"
       style="font-style:normal;font-variant:normal;font-weight:bold;font-stretch:normal;font-size:28.33363533px;line-height:1.25;font-family:Umpush;-inkscape-font-specification:Umpush;letter-spacing:0px;word-spacing:0px;fill:#ffffff;fill-opacity:1;stroke:none;stroke-width:0.70834088;stroke-opacity:1"
       d="m 87.668947,269.49293 h 6.77905 l 4.703822,11.05399 4.731481,-11.05399 h 6.76522 v 20.65533 h -5.03587 v -15.10758 l -4.75917,11.137 h -3.375661 l -4.759172,-11.137 v 15.10758 h -5.0497 z" />
    <rect
       style="fill:#ffffff;fill-opacity:1;stroke:none;stroke-width:0.18721162;stroke-opacity:1"
       id="rect5020-5"
       width="75.230827"
       height="2.010957"
       x="35.417694"
       y="292.16098" />
    <rect
       style="fill:#d40000;fill-opacity:1;stroke:none;stroke-width:0.22696538;stroke-opacity:1"
       id="rect5020-7-3"
       width="35.41769"
       height="6.2781563"
       x="6.9388939e-18"
       y="269.49292" />
  </g>
</svg>
